{
    "asset" : {
        "generator" : "Khronos glTF Blender I/O v3.2.43",
        "version" : "2.0"
    },
    "scene" : 0,
    "scenes" : [
        {
            "name" : "Scene",
            "nodes" : [
                3,
                11
            ]
        }
    ],
    "nodes" : [
        {
            "name" : "Aloe",
            "rotation" : [
                -0.650421142578125,
                0.3170134425163269,
                0.23688505589962006,
                0.6483365893363953
            ],
            "scale" : [
                100,
                100.00000762939453,
                99.99999237060547
            ]
        },
        {
            "children" : [
                0
            ],
            "name" : "RootNode"
        },
        {
            "children" : [
                1
            ],
            "name" : "ee135e661af3481888e231cb4d080591.fbx",
            "rotation" : [
                0.7071068286895752,
                0,
                0,
                0.7071067094802856
            ],
            "scale" : [
                0.009999999776482582,
                0.010000000707805157,
                0.010000000707805157
            ]
        },
        {
            "children" : [
                2
            ],
            "name" : "Sketchfab_model",
            "rotation" : [
                -0.7071068286895752,
                0,
                0,
                0.7071067094802856
            ]
        },
        {
            "mesh" : 0,
            "name" : "Aloe_Material.001_0"
        },
        {
            "mesh" : 1,
            "name" : "Aloe_Material.002_0"
        },
        {
            "mesh" : 2,
            "name" : "Aloe_Material.004_0"
        },
        {
            "mesh" : 3,
            "name" : "Aloe_pot_0"
        },
        {
            "children" : [
                4,
                5,
                6,
                7
            ],
            "name" : "Aloe.001",
            "rotation" : [
                -0.650421142578125,
                0.3170134425163269,
                0.23688502609729767,
                0.6483365893363953
            ],
            "scale" : [
                100,
                100.00000762939453,
                100
            ]
        },
        {
            "children" : [
                8
            ],
            "name" : "RootNode.001"
        },
        {
            "children" : [
                9
            ],
            "name" : "ee135e661af3481888e231cb4d080591.fbx.001",
            "rotation" : [
                0.7071068286895752,
                0,
                0,
                0.7071067094802856
            ],
            "scale" : [
                0.010000000707805157,
                0.010000000707805157,
                0.010000000707805157
            ]
        },
        {
            "children" : [
                10
            ],
            "name" : "Sketchfab_model.001",
            "rotation" : [
                -0.7071068286895752,
                0,
                0,
                0.7071067094802856
            ],
            "scale" : [
                1.2107759714126587,
                1.2107760906219482,
                1.2107760906219482
            ]
        }
    ],
    "materials" : [
        {
            "doubleSided" : true,
            "name" : "Material.001",
            "pbrMetallicRoughness" : {
                "baseColorFactor" : [
                    0.6104959845542908,
                    0.6866850256919861,
                    0.28314900398254395,
                    1
                ],
                "metallicFactor" : 0,
                "roughnessFactor" : 0.8565893769264221
            }
        },
        {
            "doubleSided" : true,
            "name" : "Material.002",
            "pbrMetallicRoughness" : {
                "baseColorTexture" : {
                    "index" : 0
                },
                "metallicFactor" : 0,
                "roughnessFactor" : 0.9587422013282776
            }
        },
        {
            "doubleSided" : true,
            "name" : "Material.004",
            "pbrMetallicRoughness" : {
                "baseColorFactor" : [
                    0.055518798530101776,
                    0.017524799332022667,
                    0.004378859885036945,
                    1
                ],
                "metallicFactor" : 0,
                "roughnessFactor" : 0.9962463974952698
            }
        },
        {
            "doubleSided" : true,
            "name" : "material",
            "pbrMetallicRoughness" : {
                "baseColorFactor" : [
                    1,
                    0.6929420232772827,
                    0.4944230020046234,
                    1
                ],
                "metallicFactor" : 0,
                "roughnessFactor" : 0.8031853437423706
            }
        }
    ],
    "meshes" : [
        {
            "name" : "Aloe_Material.001_0",
            "primitives" : [
                {
                    "attributes" : {
                        "POSITION" : 0,
                        "NORMAL" : 1,
                        "TEXCOORD_0" : 2,
                        "TEXCOORD_1" : 3
                    },
                    "indices" : 4,
                    "material" : 0
                }
            ]
        },
        {
            "name" : "Aloe_Material.002_0.001",
            "primitives" : [
                {
                    "attributes" : {
                        "POSITION" : 5,
                        "NORMAL" : 6,
                        "TEXCOORD_0" : 7,
                        "TEXCOORD_1" : 8
                    },
                    "indices" : 9,
                    "material" : 1
                }
            ]
        },
        {
            "name" : "Aloe_Material.004_0",
            "primitives" : [
                {
                    "attributes" : {
                        "POSITION" : 10,
                        "NORMAL" : 11,
                        "TEXCOORD_0" : 12,
                        "TEXCOORD_1" : 13
                    },
                    "indices" : 14,
                    "material" : 2
                }
            ]
        },
        {
            "name" : "Aloe_pot_0",
            "primitives" : [
                {
                    "attributes" : {
                        "POSITION" : 15,
                        "NORMAL" : 16,
                        "TEXCOORD_0" : 17,
                        "TEXCOORD_1" : 18
                    },
                    "indices" : 19,
                    "material" : 3
                }
            ]
        }
    ],
    "textures" : [
        {
            "sampler" : 0,
            "source" : 0
        }
    ],
    "images" : [
        {
            "bufferView" : 10,
            "mimeType" : "image/png",
            "name" : "Material.002_baseColor"
        }
    ],
    "accessors" : [
        {
            "bufferView" : 0,
            "componentType" : 5126,
            "count" : 3312,
            "max" : [
                0.48547855019569397,
                0.43011268973350525,
                0.8815302848815918
            ],
            "min" : [
                -0.43265432119369507,
                -0.3699188530445099,
                -0.06355035305023193
            ],
            "type" : "VEC3"
        },
        {
            "bufferView" : 1,
            "componentType" : 5126,
            "count" : 3312,
            "type" : "VEC3"
        },
        {
            "bufferView" : 2,
            "componentType" : 5126,
            "count" : 3312,
            "type" : "VEC2"
        },
        {
            "bufferView" : 3,
            "componentType" : 5126,
            "count" : 3312,
            "type" : "VEC2"
        },
        {
            "bufferView" : 4,
            "componentType" : 5123,
            "count" : 3888,
            "type" : "SCALAR"
        },
        {
            "bufferView" : 5,
            "componentType" : 5126,
            "count" : 4145,
            "max" : [
                0.4873453676700592,
                0.4395041763782501,
                0.8815302848815918
            ],
            "min" : [
                -0.4358440637588501,
                -0.37915465235710144,
                -0.12865522503852844
            ],
            "type" : "VEC3"
        },
        {
            "bufferView" : 6,
            "componentType" : 5126,
            "count" : 4145,
            "type" : "VEC3"
        },
        {
            "bufferView" : 7,
            "componentType" : 5126,
            "count" : 4145,
            "type" : "VEC2"
        },
        {
            "bufferView" : 8,
            "componentType" : 5126,
            "count" : 4145,
            "type" : "VEC2"
        },
        {
            "bufferView" : 9,
            "componentType" : 5123,
            "count" : 16833,
            "type" : "SCALAR"
        },
        {
            "bufferView" : 11,
            "componentType" : 5126,
            "count" : 83,
            "max" : [
                0.2494751513004303,
                0.23352620005607605,
                -0.002947479486465454
            ],
            "min" : [
                -0.24299246072769165,
                -0.2594045400619507,
                -0.05853816866874695
            ],
            "type" : "VEC3"
        },
        {
            "bufferView" : 12,
            "componentType" : 5126,
            "count" : 83,
            "type" : "VEC3"
        },
        {
            "bufferView" : 13,
            "componentType" : 5126,
            "count" : 83,
            "type" : "VEC2"
        },
        {
            "bufferView" : 14,
            "componentType" : 5126,
            "count" : 83,
            "type" : "VEC2"
        },
        {
            "bufferView" : 15,
            "componentType" : 5123,
            "count" : 378,
            "type" : "SCALAR"
        },
        {
            "bufferView" : 16,
            "componentType" : 5126,
            "count" : 3413,
            "max" : [
                0.27984699606895447,
                0.244096577167511,
                0.009927153587341309
            ],
            "min" : [
                -0.24677041172981262,
                -0.2679698169231415,
                -0.4890157878398895
            ],
            "type" : "VEC3"
        },
        {
            "bufferView" : 17,
            "componentType" : 5126,
            "count" : 3413,
            "type" : "VEC3"
        },
        {
            "bufferView" : 18,
            "componentType" : 5126,
            "count" : 3413,
            "type" : "VEC2"
        },
        {
            "bufferView" : 19,
            "componentType" : 5126,
            "count" : 3413,
            "type" : "VEC2"
        },
        {
            "bufferView" : 20,
            "componentType" : 5123,
            "count" : 17664,
            "type" : "SCALAR"
        }
    ],
    "bufferViews" : [
        {
            "buffer" : 0,
            "byteLength" : 39744,
            "byteOffset" : 0
        },
        {
            "buffer" : 0,
            "byteLength" : 39744,
            "byteOffset" : 39744
        },
        {
            "buffer" : 0,
            "byteLength" : 26496,
            "byteOffset" : 79488
        },
        {
            "buffer" : 0,
            "byteLength" : 26496,
            "byteOffset" : 105984
        },
        {
            "buffer" : 0,
            "byteLength" : 7776,
            "byteOffset" : 132480
        },
        {
            "buffer" : 0,
            "byteLength" : 49740,
            "byteOffset" : 140256
        },
        {
            "buffer" : 0,
            "byteLength" : 49740,
            "byteOffset" : 189996
        },
        {
            "buffer" : 0,
            "byteLength" : 33160,
            "byteOffset" : 239736
        },
        {
            "buffer" : 0,
            "byteLength" : 33160,
            "byteOffset" : 272896
        },
        {
            "buffer" : 0,
            "byteLength" : 33666,
            "byteOffset" : 306056
        },
        {
            "buffer" : 0,
            "byteLength" : 362954,
            "byteOffset" : 339724
        },
        {
            "buffer" : 0,
            "byteLength" : 996,
            "byteOffset" : 702680
        },
        {
            "buffer" : 0,
            "byteLength" : 996,
            "byteOffset" : 703676
        },
        {
            "buffer" : 0,
            "byteLength" : 664,
            "byteOffset" : 704672
        },
        {
            "buffer" : 0,
            "byteLength" : 664,
            "byteOffset" : 705336
        },
        {
            "buffer" : 0,
            "byteLength" : 756,
            "byteOffset" : 706000
        },
        {
            "buffer" : 0,
            "byteLength" : 40956,
            "byteOffset" : 706756
        },
        {
            "buffer" : 0,
            "byteLength" : 40956,
            "byteOffset" : 747712
        },
        {
            "buffer" : 0,
            "byteLength" : 27304,
            "byteOffset" : 788668
        },
        {
            "buffer" : 0,
            "byteLength" : 27304,
            "byteOffset" : 815972
        },
        {
            "buffer" : 0,
            "byteLength" : 35328,
            "byteOffset" : 843276
        }
    ],
    "samplers" : [
        {
            "magFilter" : 9729,
            "minFilter" : 9987
        }
    ],
    "buffers" : [
        {
            "byteLength" : 878604,
            "uri" : "data:application/octet-stream;base64,"
        }
    ]
}
