{
    "asset" : {
        "generator" : "Khronos glTF Blender I/O v3.2.43",
        "version" : "2.0"
    },
    "scene" : 0,
    "scenes" : [
        {
            "name" : "Scene",
            "nodes" : [
                0,
                1,
                2
            ]
        }
    ],
    "nodes" : [
        {
            "mesh" : 0,
            "name" : "Object_4",
            "translation" : [
                0,
                0.6364927291870117,
                0
            ]
        },
        {
            "mesh" : 1,
            "name" : "Object_5",
            "translation" : [
                0,
                0.6364927291870117,
                0
            ]
        },
        {
            "mesh" : 2,
            "name" : "Object_6",
            "translation" : [
                0,
                0.6364927291870117,
                0
            ]
        }
    ],
    "materials" : [
        {
            "doubleSided" : true,
            "name" : "Plant_Pot.001",
            "normalTexture" : {
                "index" : 0
            },
            "pbrMetallicRoughness" : {
                "baseColorTexture" : {
                    "index" : 1
                },
                "metallicRoughnessTexture" : {
                    "index" : 2
                }
            }
        },
        {
            "doubleSided" : true,
            "name" : "Plant_Stem.001",
            "normalTexture" : {
                "index" : 3
            },
            "pbrMetallicRoughness" : {
                "baseColorTexture" : {
                    "index" : 4
                },
                "metallicRoughnessTexture" : {
                    "index" : 5
                }
            }
        },
        {
            "doubleSided" : true,
            "name" : "Leaf_Areca_Palm.001",
            "normalTexture" : {
                "index" : 6
            },
            "pbrMetallicRoughness" : {
                "baseColorTexture" : {
                    "index" : 7
                },
                "metallicRoughnessTexture" : {
                    "index" : 8
                }
            }
        }
    ],
    "meshes" : [
        {
            "name" : "Object_0",
            "primitives" : [
                {
                    "attributes" : {
                        "POSITION" : 0,
                        "NORMAL" : 1,
                        "TEXCOORD_0" : 2
                    },
                    "indices" : 3,
                    "material" : 0
                }
            ]
        },
        {
            "name" : "Object_1",
            "primitives" : [
                {
                    "attributes" : {
                        "POSITION" : 4,
                        "NORMAL" : 5,
                        "TEXCOORD_0" : 6,
                        "TEXCOORD_1" : 7,
                        "TEXCOORD_2" : 8,
                        "TEXCOORD_3" : 9
                    },
                    "indices" : 10,
                    "material" : 1
                }
            ]
        },
        {
            "name" : "Object_2",
            "primitives" : [
                {
                    "attributes" : {
                        "POSITION" : 11,
                        "NORMAL" : 12,
                        "TEXCOORD_0" : 13,
                        "TEXCOORD_1" : 14,
                        "TEXCOORD_2" : 15,
                        "TEXCOORD_3" : 16
                    },
                    "indices" : 17,
                    "material" : 2
                }
            ]
        }
    ],
    "textures" : [
        {
            "sampler" : 0,
            "source" : 0
        },
        {
            "sampler" : 0,
            "source" : 1
        },
        {
            "sampler" : 0,
            "source" : 2
        },
        {
            "sampler" : 0,
            "source" : 3
        },
        {
            "sampler" : 0,
            "source" : 4
        },
        {
            "sampler" : 0,
            "source" : 5
        },
        {
            "sampler" : 0,
            "source" : 6
        },
        {
            "sampler" : 0,
            "source" : 7
        },
        {
            "sampler" : 0,
            "source" : 8
        }
    ],
    "images" : [
        {
            "bufferView" : 4,
            "mimeType" : "image/png",
            "name" : "Image_2"
        },
        {
            "bufferView" : 5,
            "mimeType" : "image/png",
            "name" : "Image_0"
        },
        {
            "bufferView" : 6,
            "mimeType" : "image/png",
            "name" : "Image_1"
        },
        {
            "bufferView" : 14,
            "mimeType" : "image/png",
            "name" : "Image_5"
        },
        {
            "bufferView" : 15,
            "mimeType" : "image/png",
            "name" : "Image_3"
        },
        {
            "bufferView" : 16,
            "mimeType" : "image/png",
            "name" : "Image_4"
        },
        {
            "bufferView" : 24,
            "mimeType" : "image/png",
            "name" : "Image_8"
        },
        {
            "bufferView" : 25,
            "mimeType" : "image/png",
            "name" : "Image_6"
        },
        {
            "bufferView" : 26,
            "mimeType" : "image/png",
            "name" : "Image_7"
        }
    ],
    "accessors" : [
        {
            "bufferView" : 0,
            "componentType" : 5126,
            "count" : 429,
            "max" : [
                0.577657163143158,
                0.10869160294532776,
                0.5574869513511658
            ],
            "min" : [
                -0.5092362761497498,
                -0.5940283536911011,
                -0.5294069647789001
            ],
            "type" : "VEC3"
        },
        {
            "bufferView" : 1,
            "componentType" : 5126,
            "count" : 429,
            "type" : "VEC3"
        },
        {
            "bufferView" : 2,
            "componentType" : 5126,
            "count" : 429,
            "type" : "VEC2"
        },
        {
            "bufferView" : 3,
            "componentType" : 5123,
            "count" : 2004,
            "type" : "SCALAR"
        },
        {
            "bufferView" : 7,
            "componentType" : 5126,
            "count" : 396,
            "max" : [
                0.7260545492172241,
                1.3527897596359253,
                0.8793368935585022
            ],
            "min" : [
                -1.007918357849121,
                -0.05975862592458725,
                -0.871734619140625
            ],
            "type" : "VEC3"
        },
        {
            "bufferView" : 8,
            "componentType" : 5126,
            "count" : 396,
            "type" : "VEC3"
        },
        {
            "bufferView" : 9,
            "componentType" : 5126,
            "count" : 396,
            "type" : "VEC2"
        },
        {
            "bufferView" : 10,
            "componentType" : 5126,
            "count" : 396,
            "type" : "VEC2"
        },
        {
            "bufferView" : 11,
            "componentType" : 5126,
            "count" : 396,
            "type" : "VEC2"
        },
        {
            "bufferView" : 12,
            "componentType" : 5126,
            "count" : 396,
            "type" : "VEC2"
        },
        {
            "bufferView" : 13,
            "componentType" : 5123,
            "count" : 1920,
            "type" : "SCALAR"
        },
        {
            "bufferView" : 17,
            "componentType" : 5126,
            "count" : 1000,
            "max" : [
                0.9650013446807861,
                1.422601342201233,
                1.1625748872756958
            ],
            "min" : [
                -1.3222674131393433,
                0.37759676575660706,
                -1.0940711498260498
            ],
            "type" : "VEC3"
        },
        {
            "bufferView" : 18,
            "componentType" : 5126,
            "count" : 1000,
            "type" : "VEC3"
        },
        {
            "bufferView" : 19,
            "componentType" : 5126,
            "count" : 1000,
            "type" : "VEC2"
        },
        {
            "bufferView" : 20,
            "componentType" : 5126,
            "count" : 1000,
            "type" : "VEC2"
        },
        {
            "bufferView" : 21,
            "componentType" : 5126,
            "count" : 1000,
            "type" : "VEC2"
        },
        {
            "bufferView" : 22,
            "componentType" : 5126,
            "count" : 1000,
            "type" : "VEC2"
        },
        {
            "bufferView" : 23,
            "componentType" : 5123,
            "count" : 2496,
            "type" : "SCALAR"
        }
    ],
    "bufferViews" : [
        {
            "buffer" : 0,
            "byteLength" : 5148,
            "byteOffset" : 0
        },
        {
            "buffer" : 0,
            "byteLength" : 5148,
            "byteOffset" : 5148
        },
        {
            "buffer" : 0,
            "byteLength" : 3432,
            "byteOffset" : 10296
        },
        {
            "buffer" : 0,
            "byteLength" : 4008,
            "byteOffset" : 13728
        },
        {
            "buffer" : 0,
            "byteLength" : 313095,
            "byteOffset" : 17736
        },
        {
            "buffer" : 0,
            "byteLength" : 233340,
            "byteOffset" : 330832
        },
        {
            "buffer" : 0,
            "byteLength" : 199,
            "byteOffset" : 564172
        },
        {
            "buffer" : 0,
            "byteLength" : 4752,
            "byteOffset" : 564372
        },
        {
            "buffer" : 0,
            "byteLength" : 4752,
            "byteOffset" : 569124
        },
        {
            "buffer" : 0,
            "byteLength" : 3168,
            "byteOffset" : 573876
        },
        {
            "buffer" : 0,
            "byteLength" : 3168,
            "byteOffset" : 577044
        },
        {
            "buffer" : 0,
            "byteLength" : 3168,
            "byteOffset" : 580212
        },
        {
            "buffer" : 0,
            "byteLength" : 3168,
            "byteOffset" : 583380
        },
        {
            "buffer" : 0,
            "byteLength" : 3840,
            "byteOffset" : 586548
        },
        {
            "buffer" : 0,
            "byteLength" : 36427,
            "byteOffset" : 590388
        },
        {
            "buffer" : 0,
            "byteLength" : 32376,
            "byteOffset" : 626816
        },
        {
            "buffer" : 0,
            "byteLength" : 15407,
            "byteOffset" : 659192
        },
        {
            "buffer" : 0,
            "byteLength" : 12000,
            "byteOffset" : 674600
        },
        {
            "buffer" : 0,
            "byteLength" : 12000,
            "byteOffset" : 686600
        },
        {
            "buffer" : 0,
            "byteLength" : 8000,
            "byteOffset" : 698600
        },
        {
            "buffer" : 0,
            "byteLength" : 8000,
            "byteOffset" : 706600
        },
        {
            "buffer" : 0,
            "byteLength" : 8000,
            "byteOffset" : 714600
        },
        {
            "buffer" : 0,
            "byteLength" : 8000,
            "byteOffset" : 722600
        },
        {
            "buffer" : 0,
            "byteLength" : 4992,
            "byteOffset" : 730600
        },
        {
            "buffer" : 0,
            "byteLength" : 245884,
            "byteOffset" : 735592
        },
        {
            "buffer" : 0,
            "byteLength" : 230672,
            "byteOffset" : 981476
        },
        {
            "buffer" : 0,
            "byteLength" : 77557,
            "byteOffset" : 1212148
        }
    ],
    "samplers" : [
        {
            "magFilter" : 9729,
            "minFilter" : 9987
        }
    ],
    "buffers" : [
        {
            "byteLength" : 1289708,
            "uri" : "data:application/octet-stream;base64,"
        }
    ]
}
